<svg width="59" height="59" viewBox="0 0 59 59" fill="none" xmlns="http://www.w3.org/2000/svg">
<rect width="58.871" height="58.871" rx="10" fill="#1B2133"/>
<g clip-path="url(#clip0_389_1214)">
<path d="M36.6321 34.6091L39.685 34.6091C40.1065 34.6091 40.4482 34.2674 40.4482 33.8459L40.4482 21.6344C40.4482 21.213 40.1065 20.8712 39.685 20.8712L36.6321 20.8712C36.2107 20.8712 35.8689 21.2129 35.8689 21.6344L35.8689 33.8459C35.8689 34.2674 36.2106 34.6091 36.6321 34.6091Z" fill="white"/>
<path d="M17.5669 32.5859C17.7015 33.7698 18.8075 34.609 19.9991 34.609L25.9494 34.609C25.4437 35.5145 25.1723 38.0755 25.1843 39.1217C25.2043 40.8535 26.6384 42.2412 28.3702 42.2412L28.9999 42.2412C29.4218 42.2412 29.7632 41.8999 29.7632 41.478C29.7632 39.7131 30.4504 36.5275 31.7465 35.2313C32.6189 34.359 33.3646 34.0428 34.3425 33.5541L34.3425 22.1021C32.8454 21.603 30.9444 20.871 28.047 20.871L23.0544 20.871C21.4093 20.871 20.1281 22.3946 20.7656 24.0044C19.7944 24.2689 19.0782 25.1596 19.0782 26.2136C19.0782 26.511 19.1356 26.7957 19.2391 27.0573C17.6025 27.5032 17.0001 29.524 18.136 30.7929C17.7187 31.2591 17.4886 31.8968 17.5669 32.5859Z" fill="white"/>
</g>
<defs>
<clipPath id="clip0_389_1214">
<rect width="26" height="26" fill="white" transform="translate(42 46.8711) rotate(-180)"/>
</clipPath>
</defs>
</svg>
