<svg width="97" height="19" viewBox="0 0 97 19" fill="none" xmlns="http://www.w3.org/2000/svg">
<path d="M14.65 18H10.1L4.5 9.9V18H0.5V0.499999H4.5V8.1L9.85 0.499999H14.4L8.5 9.025L14.65 18ZM16.0244 4V0.499999H19.7744V4H16.0244ZM16.0244 18V5.5H19.7744V18H16.0244ZM29.5186 5.15C30.7019 5.15 31.6602 5.59167 32.3936 6.475C33.1436 7.34167 33.5186 8.54167 33.5186 10.075V18H29.7686V10.4C29.7686 9.8 29.6102 9.35 29.2936 9.05C28.9936 8.75 28.5936 8.6 28.0936 8.6C26.8769 8.6 26.2686 9.3 26.2686 10.7V18H22.5186V5.5H26.2686V6.65C26.9186 5.65 28.0019 5.15 29.5186 5.15ZM46.6463 16.45C45.363 17.7167 43.7963 18.35 41.9463 18.35C40.0963 18.35 38.5296 17.7167 37.2463 16.45C35.963 15.1667 35.3213 13.6 35.3213 11.75C35.3213 9.9 35.963 8.34167 37.2463 7.075C38.5296 5.79167 40.0963 5.15 41.9463 5.15C43.7963 5.15 45.363 5.79167 46.6463 7.075C47.9296 8.34167 48.5713 9.9 48.5713 11.75C48.5713 13.6 47.9296 15.1667 46.6463 16.45ZM39.8963 13.875C40.4463 14.425 41.1296 14.7 41.9463 14.7C42.763 14.7 43.4463 14.425 43.9963 13.875C44.5463 13.325 44.8213 12.6167 44.8213 11.75C44.8213 10.8833 44.5463 10.175 43.9963 9.625C43.4463 9.075 42.763 8.8 41.9463 8.8C41.1296 8.8 40.4463 9.075 39.8963 9.625C39.3463 10.175 39.0713 10.8833 39.0713 11.75C39.0713 12.6167 39.3463 13.325 39.8963 13.875Z" fill="#3657CB"/>
<path d="M52.1674 6.4C53.1674 5.56667 54.4007 5.15 55.8674 5.15C57.3341 5.15 58.5674 5.58333 59.5674 6.45C60.5674 7.3 61.0674 8.525 61.0674 10.125V18H57.4174V17.025C56.6507 17.9083 55.5757 18.35 54.1924 18.35C53.0257 18.35 52.0424 18.0083 51.2424 17.325C50.459 16.6417 50.0674 15.6833 50.0674 14.45C50.0674 13.2167 50.459 12.2583 51.2424 11.575C52.0424 10.8917 53.0257 10.55 54.1924 10.55C55.4924 10.55 56.5674 10.8667 57.4174 11.5V10.375C57.4174 9.19167 56.9007 8.6 55.8674 8.6C55.3674 8.6 54.984 8.71667 54.7174 8.95C54.4507 9.18333 54.3174 9.49167 54.3174 9.875H50.6674C50.6674 8.39167 51.1674 7.23333 52.1674 6.4ZM55.5174 15.7C56.1174 15.7 56.584 15.5833 56.9174 15.35C57.2507 15.1167 57.4174 14.8167 57.4174 14.45C57.4174 14.0667 57.2507 13.7667 56.9174 13.55C56.584 13.3167 56.1174 13.2 55.5174 13.2C54.9674 13.2 54.5424 13.3167 54.2424 13.55C53.959 13.7667 53.8174 14.0667 53.8174 14.45C53.8174 14.8333 53.959 15.1417 54.2424 15.375C54.5424 15.5917 54.9674 15.7 55.5174 15.7ZM67.2354 7.475C67.4354 6.75833 67.827 6.20833 68.4104 5.825C68.9937 5.44167 69.6854 5.25 70.4854 5.25V9.5C69.6187 9.36667 68.8604 9.50833 68.2104 9.925C67.5604 10.3417 67.2354 11.0667 67.2354 12.1V18H63.4854V5.5H67.2354V7.475ZM75.1594 13.25C75.576 14.6333 76.551 15.325 78.0844 15.325C78.5344 15.325 78.9594 15.2417 79.3594 15.075C79.7594 14.8917 80.051 14.6583 80.2344 14.375L83.8844 14.35C83.4844 15.65 82.7677 16.6417 81.7344 17.325C80.701 18.0083 79.4677 18.35 78.0344 18.35C76.001 18.35 74.3594 17.725 73.1094 16.475C71.8594 15.225 71.2344 13.65 71.2344 11.75C71.2344 9.86667 71.8594 8.3 73.1094 7.05C74.376 5.78333 75.9844 5.15 77.9344 5.15C79.751 5.15 81.251 5.775 82.4344 7.025C83.6344 8.275 84.2344 9.85 84.2344 11.75C84.2344 12.2833 84.1844 12.7833 84.0844 13.25H75.1594ZM75.1344 10.4H80.5094C80.1427 9.11667 79.276 8.475 77.9094 8.475C76.476 8.475 75.551 9.11667 75.1344 10.4ZM87.7875 6.4C88.7875 5.56667 90.0208 5.15 91.4875 5.15C92.9542 5.15 94.1875 5.58333 95.1875 6.45C96.1875 7.3 96.6875 8.525 96.6875 10.125V18H93.0375V17.025C92.2708 17.9083 91.1958 18.35 89.8125 18.35C88.6458 18.35 87.6625 18.0083 86.8625 17.325C86.0792 16.6417 85.6875 15.6833 85.6875 14.45C85.6875 13.2167 86.0792 12.2583 86.8625 11.575C87.6625 10.8917 88.6458 10.55 89.8125 10.55C91.1125 10.55 92.1875 10.8667 93.0375 11.5V10.375C93.0375 9.19167 92.5208 8.6 91.4875 8.6C90.9875 8.6 90.6042 8.71667 90.3375 8.95C90.0708 9.18333 89.9375 9.49167 89.9375 9.875H86.2875C86.2875 8.39167 86.7875 7.23333 87.7875 6.4ZM91.1375 15.7C91.7375 15.7 92.2042 15.5833 92.5375 15.35C92.8708 15.1167 93.0375 14.8167 93.0375 14.45C93.0375 14.0667 92.8708 13.7667 92.5375 13.55C92.2042 13.3167 91.7375 13.2 91.1375 13.2C90.5875 13.2 90.1625 13.3167 89.8625 13.55C89.5792 13.7667 89.4375 14.0667 89.4375 14.45C89.4375 14.8333 89.5792 15.1417 89.8625 15.375C90.1625 15.5917 90.5875 15.7 91.1375 15.7Z" fill="white"/>
</svg>
