<svg width="59" height="59" viewBox="0 0 59 59" fill="none" xmlns="http://www.w3.org/2000/svg">
<rect x="58.871" y="58.8711" width="58.871" height="58.871" rx="10" transform="rotate(180 58.871 58.8711)" fill="#1B2133"/>
<g clip-path="url(#clip0_389_1223)">
<path d="M22.2389 24.262H19.186C18.7645 24.262 18.4227 24.6037 18.4227 25.0252V37.2366C18.4227 37.6581 18.7644 37.9999 19.186 37.9999H22.2388C22.6603 37.9999 23.0021 37.6582 23.0021 37.2366V25.0252C23.0021 24.6037 22.6604 24.262 22.2389 24.262Z" fill="white"/>
<path d="M41.304 26.2852C41.1694 25.1012 40.0635 24.2621 38.8719 24.2621H32.9216C33.4273 23.3566 33.6987 20.7956 33.6867 19.7494C33.6667 18.0176 32.2326 16.6299 30.5008 16.6299H29.871C29.4492 16.6299 29.1078 16.9712 29.1078 17.3931C29.1078 19.158 28.4206 22.3436 27.1245 23.6398C26.2521 24.5121 25.5063 24.8282 24.5284 25.317V36.769C26.0256 37.2681 27.9266 38.0001 30.824 38.0001H35.8166C37.4616 38.0001 38.7429 36.4765 38.1054 34.8667C39.0766 34.6021 39.7928 33.7114 39.7928 32.6575C39.7928 32.3601 39.7354 32.0754 39.6318 31.8138C41.2684 31.3679 41.8709 29.3471 40.7349 28.0782C41.1523 27.612 41.3824 26.9743 41.304 26.2852Z" fill="white"/>
</g>
<defs>
<clipPath id="clip0_389_1223">
<rect width="26" height="26" fill="white" transform="translate(16.871 12)"/>
</clipPath>
</defs>
</svg>
