<svg width="24" height="24" viewBox="0 0 24 24" fill="none" xmlns="http://www.w3.org/2000/svg">
<path d="M13.2656 6.49145C13.2656 5.0957 12.1301 3.96021 10.7344 3.96021C9.33863 3.96021 8.20312 5.0957 8.20312 6.49145C8.20312 7.8872 9.33863 9.0227 10.7344 9.0227C12.1301 9.0227 13.2656 7.8872 13.2656 6.49145ZM9.14062 6.49145C9.14062 5.61264 9.85556 4.8977 10.7344 4.8977C11.6132 4.8977 12.3281 5.61264 12.3281 6.49145C12.3281 7.37026 11.6132 8.0852 10.7344 8.0852C9.85556 8.0852 9.14062 7.37026 9.14062 6.49145Z" fill="white"/>
<path d="M6.64445 12.5527C7.24675 12.2458 7.69347 11.7227 7.90239 11.0799C8.11126 10.437 8.05731 9.7512 7.75042 9.14895C7.44353 8.54665 6.92045 8.09994 6.27761 7.89101C5.63467 7.68209 4.94894 7.73609 4.34669 8.04298C3.74439 8.34987 3.29767 8.87295 3.08875 9.51579C2.87987 10.1587 2.93383 10.8445 3.24072 11.4467C3.54761 12.049 4.07069 12.4957 4.71353 12.7046C4.97097 12.7883 5.2352 12.8298 5.49822 12.8298C5.89211 12.8298 6.28328 12.7367 6.64445 12.5527ZM5.00322 11.813C4.5985 11.6816 4.2692 11.4003 4.07598 11.0211C3.88276 10.642 3.84878 10.2102 3.98031 9.80553C4.1118 9.40081 4.39305 9.07151 4.77222 8.87829C4.99961 8.76242 5.24584 8.70383 5.49386 8.70383C5.65942 8.70383 5.82583 8.72998 5.98787 8.78262C6.39259 8.91411 6.72189 9.19536 6.91511 9.57453C7.10833 9.9537 7.14231 10.3854 7.01078 10.7901C6.8793 11.1949 6.59805 11.5241 6.21887 11.7174C5.83965 11.9105 5.40794 11.9445 5.00322 11.813Z" fill="white"/>
<path d="M6.00882 18.5042C6.45713 18.8299 6.97744 18.9867 7.49321 18.9867C8.27658 18.9867 9.04964 18.625 9.54427 17.9442C9.94167 17.3972 10.1023 16.7283 9.99647 16.0605C9.89068 15.3927 9.53124 14.8061 8.98425 14.4088C8.43727 14.0114 7.76841 13.8507 7.10053 13.9566C6.43275 14.0623 5.84616 14.4218 5.4488 14.9687C4.62853 16.0978 4.87974 17.6838 6.00882 18.5042ZM6.20733 15.5198C6.4575 15.1754 6.82683 14.9491 7.24725 14.8825C7.33168 14.8691 7.4161 14.8625 7.49996 14.8625C7.83371 14.8625 8.15808 14.9673 8.43328 15.1673C9.14419 15.6838 9.30235 16.6823 8.78583 17.3932C8.26932 18.1041 7.27078 18.2623 6.55988 17.7458C5.84897 17.2292 5.69082 16.2307 6.20733 15.5198Z" fill="white"/>
<path d="M13.9755 18.9866C14.4913 18.9866 15.0117 18.8298 15.4599 18.5042C16.589 17.6838 16.8402 16.0978 16.0199 14.9687C15.6225 14.4218 15.0359 14.0623 14.3682 13.9565C13.7004 13.8508 13.0314 14.0114 12.4845 14.4087C11.9375 14.8061 11.578 15.3927 11.4722 16.0605C11.3664 16.7282 11.5271 17.3972 11.9244 17.9442C12.4192 18.6251 13.192 18.9866 13.9755 18.9866ZM13.0355 15.1672C13.3798 14.917 13.8008 14.8158 14.2215 14.8825C14.6419 14.9491 15.0112 15.1754 15.2614 15.5198C15.7779 16.2307 15.6197 17.2292 14.9088 17.7457C14.1979 18.2622 13.1993 18.1041 12.6829 17.3932C12.1664 16.6823 12.3246 15.6837 13.0355 15.1672Z" fill="white"/>
<path d="M15.1912 7.89094C14.5483 8.09986 14.0252 8.54658 13.7184 9.14888C13.4115 9.75117 13.3575 10.4369 13.5664 11.0798C13.7753 11.7227 14.2221 12.2458 14.8243 12.5526C15.1855 12.7366 15.5766 12.8297 15.9706 12.8297C16.2336 12.8297 16.4979 12.7882 16.7553 12.7046C17.3982 12.4957 17.9212 12.049 18.2281 11.4467C18.535 10.8444 18.5889 10.1587 18.3801 9.51577C18.1711 8.87288 17.7244 8.3498 17.1221 8.04295C16.5199 7.73606 15.8341 7.68216 15.1912 7.89094ZM16.6965 8.87827C17.0757 9.07149 17.357 9.40074 17.4884 9.8055C17.62 10.2102 17.586 10.6419 17.3928 11.0211C17.1996 11.4003 16.8703 11.6815 16.4655 11.813C16.0608 11.9445 15.6291 11.9106 15.2499 11.7173C14.8708 11.5241 14.5895 11.1949 14.458 10.7901C14.3265 10.3854 14.3605 9.95367 14.5537 9.5745C14.7469 9.19533 15.0762 8.91408 15.4809 8.7826C15.643 8.72991 15.8093 8.7038 15.9749 8.7038C16.2229 8.7038 16.4691 8.76239 16.6965 8.87827Z" fill="white"/>
<path d="M12.3418 12C12.3418 11.1137 11.6208 10.3926 10.7344 10.3926C9.84803 10.3926 9.12695 11.1137 9.12695 12C9.12695 12.8864 9.84803 13.6075 10.7344 13.6075C11.6208 13.6075 12.3418 12.8864 12.3418 12ZM10.0645 12C10.0645 11.6306 10.365 11.3301 10.7344 11.3301C11.1038 11.3301 11.4043 11.6306 11.4043 12C11.4043 12.3694 11.1038 12.67 10.7344 12.67C10.365 12.67 10.0645 12.3694 10.0645 12Z" fill="white"/>
<path d="M23.8627 20.7073C23.3326 20.1772 22.6279 19.8853 21.8783 19.8853C21.1287 19.8853 20.424 20.1772 19.8939 20.7073C19.1913 21.4099 18.2571 21.7969 17.2634 21.7969H15.1344C16.3078 21.2693 17.3877 20.5273 18.3247 19.5903C20.3522 17.5629 21.4688 14.8673 21.4688 12C21.4688 9.90281 20.8638 7.87102 19.7192 6.12427C19.5774 5.9077 19.2868 5.84719 19.0702 5.98908C18.8537 6.13097 18.7932 6.42155 18.9351 6.63806C19.9793 8.23172 20.5312 10.0859 20.5312 12C20.5312 17.402 16.1364 21.7969 10.7344 21.7969C5.33236 21.7969 0.9375 17.402 0.9375 12C0.9375 6.59798 5.33236 2.20312 10.7344 2.20312C12.6517 2.20312 14.5086 2.75681 16.104 3.80438C16.3204 3.9465 16.611 3.88627 16.7531 3.6698C16.8952 3.45338 16.835 3.1628 16.6185 3.02067C14.8698 1.87252 12.8351 1.26562 10.7344 1.26562C7.86713 1.26562 5.17148 2.38219 3.14405 4.40967C1.11661 6.43716 0 9.13275 0 12C0 14.8673 1.11656 17.5629 3.14405 19.5904C5.17148 21.6178 7.86713 22.7344 10.7344 22.7344H17.2634C18.5075 22.7344 19.6771 22.2499 20.5568 21.3702C20.9098 21.0172 21.3791 20.8228 21.8783 20.8228C22.3775 20.8228 22.8468 21.0172 23.1998 21.3702C23.3828 21.5532 23.6796 21.5532 23.8627 21.3702C24.0458 21.1871 24.0458 20.8903 23.8627 20.7073Z" fill="white"/>
<path d="M17.9967 5.21291C18.12 5.21291 18.2409 5.16322 18.3281 5.07604C18.4153 4.98838 18.4655 4.86791 18.4655 4.74463C18.4655 4.62088 18.4153 4.50041 18.3281 4.41275C18.2409 4.32557 18.12 4.27588 17.9967 4.27588C17.8734 4.27588 17.7525 4.32557 17.6653 4.41275C17.5781 4.50041 17.528 4.62088 17.528 4.74463C17.528 4.86791 17.5781 4.98885 17.6653 5.07604C17.7525 5.16322 17.8734 5.21291 17.9967 5.21291Z" fill="white"/>
</svg>
